<?xml version="1.0" encoding="UTF-8" standalone="no"?>
<svg
   xmlns:dc="http://purl.org/dc/elements/1.1/"
   xmlns:cc="http://creativecommons.org/ns#"
   xmlns:rdf="http://www.w3.org/1999/02/22-rdf-syntax-ns#"
   xmlns:svg="http://www.w3.org/2000/svg"
   xmlns="http://www.w3.org/2000/svg"
   viewBox="0 0 270 101"
   version="1.1"
   id="svg4835"
   height="101"
   width="270">
  <defs
     id="defs4837" />
  <metadata
     id="metadata4840">
    <rdf:RDF>
      <cc:Work
         rdf:about="">
        <dc:format>image/svg+xml</dc:format>
        <dc:type
           rdf:resource="http://purl.org/dc/dcmitype/StillImage" />
        <dc:title></dc:title>
      </cc:Work>
    </rdf:RDF>
  </metadata>
  <g
     transform="translate(0,-667)"
     id="layer1">
    <g
       id="g59"
       transform="translate(10.112796,678.16656)">
      <path
         id="path61"
         d="m 215.851,32.971 c -7.094,-0.3 -14.237,-1.357 -21.488,-1.482 -9.663,-0.166 -19.325,0.064 -28.994,0.04 -6.989,-0.018 -29.979,-0.616 -52.244,-0.542 0.205,-0.485 -12.149,-4.629 -13.331,-5.063 -1.495,-0.549 -1.983,-0.817 -3.582,-0.351 -1.792,0.525 -3.85,3.214 -4.539,5.764 -9.578,0.32 -17.707,0.891 -22.496,1.859 -3.896,0.788 -18.141,-0.404 -19.21,-0.907 -2.588,-1.219 -25.422,-8.457 -28.524,-8.852 -0.998,-0.128 -1.866,-0.285 -2.876,-0.193 -1.595,0.147 -4.518,-0.062 -5.127,2.009 -0.4,1.354 0.777,2.811 1.574,3.77 2.142,2.592 5.486,4.409 7.311,7.228 2.693,4.145 1.829,2.792 -0.455,6.326 -2.233,3.45 -9.465,9.44 -10.25,13.098 -2.066,9.584 10.121,6.122 14.35,4.568 8.463,-3.117 16.425,-7.803 25.201,-10.009 1.029,-0.259 13.707,2.055 23.195,4.019 0.065,4.388 -1.812,6.568 -1.593,11 11.887,0.605 23.46,-1.852 35.447,-2.554 2.257,0.712 4.497,1.459 6.701,2.279 4.655,1.732 8.797,2.68 13.766,3.374 10.671,1.491 65.698,7.125 99.191,-15.71 4.976,-3.391 29.768,-17.899 -12.027,-19.671 z m 3.814,16.394 c -2.756,0.503 -6.085,-2.24 -5.878,-5.003 0.024,-0.447 0.193,-1.134 0.4,-1.82 0.284,-0.821 0.662,-1.635 1.073,-2.043 0.687,-0.688 2.169,-0.802 3.1,-0.838 2.514,-0.125 4.148,1.319 4.479,3.812 0.293,2.365 -0.439,5.418 -3.174,5.892 z"
         style="fill:#ffffff" />
    </g>
  </g>
</svg>
